HIERARCHY
ROOT hip
{
	OFFSET 0.000000 0.000000 0.000000 
	CHANNELS 6 Xposition Yposition Zposition Xrotation Zrotation Yrotation
	JOINT abdomen
	{
		OFFSET 0.000000 3.402643 0.000000 
		CHANNELS 3 Xrotation Zrotation Yrotation
		JOINT chest
		{
			OFFSET 0.000000 8.438565 -0.680529 
			CHANNELS 3 Xrotation Zrotation Yrotation
			JOINT neck
			{
				OFFSET 0.000000 10.207942 -0.272212 
				CHANNELS 3 Xrotation Zrotation Yrotation
				JOINT head
				{
					OFFSET 0.000000 3.130431 0.000000 
					CHANNELS 3 Xrotation Zrotation Yrotation
					End Site
					{
						OFFSET 0.000000 3.130435 0.000000 
					}
				}
			}
			JOINT lCollar
			{
				OFFSET 3.470700 6.669187 -0.816635 
				CHANNELS 3 Yrotation Zrotation Xrotation
				JOINT lShldr
				{
					OFFSET 3.198488 0.000000 0.000000 
					CHANNELS 3 Zrotation Yrotation Xrotation
					JOINT lForeArm
					{
						OFFSET 10.139888 0.000000 0.000000 
						CHANNELS 3 Yrotation Zrotation Xrotation
						JOINT lHand
						{
							OFFSET 8.370511 0.000000 0.000000 
							CHANNELS 3 Zrotation Yrotation Xrotation
							End Site
							{
								OFFSET 4.083176 0.000000 0.000000 
							}
						}
					}
				}
			}
			JOINT rCollar
			{
				OFFSET -3.470700 6.669187 -0.816635 
				CHANNELS 3 Yrotation Zrotation Xrotation
				JOINT rShldr
				{
					OFFSET -3.198488 0.000000 0.000000 
					CHANNELS 3 Zrotation Yrotation Xrotation
					JOINT rForeArm
					{
						OFFSET -10.139888 0.000000 0.000000 
						CHANNELS 3 Yrotation Zrotation Xrotation
						JOINT rHand
						{
							OFFSET -8.370511 0.000000 0.000000 
							CHANNELS 3 Zrotation Yrotation Xrotation
							End Site
							{
								OFFSET -4.083176 0.000000 0.000000 
							}
						}
					}
				}
			}
		}
	}
	JOINT lThigh
	{
		OFFSET 5.308129 -1.633274 1.361059 
		CHANNELS 3 Xrotation Zrotation Yrotation
		JOINT lShin
		{
			OFFSET -2.041588 -20.007561 0.000000 
			CHANNELS 3 Xrotation Zrotation Yrotation
			JOINT lFoot
			{
				OFFSET 0.000000 -19.190928 -1.224953 
				CHANNELS 3 Xrotation Yrotation Zrotation
				End Site
				{
					OFFSET 0.000000 -2.449906 4.627600 
				}
			}
		}
	}
	JOINT rThigh
	{
		OFFSET -5.308129 -1.633274 1.361059 
		CHANNELS 3 Xrotation Zrotation Yrotation
		JOINT rShin
		{
			OFFSET 2.041588 -20.007561 0.000000 
			CHANNELS 3 Xrotation Zrotation Yrotation
			JOINT rFoot
			{
				OFFSET 0.000000 -19.190928 -1.224953 
				CHANNELS 3 Xrotation Yrotation Zrotation
				End Site
				{
					OFFSET 0.000000 -2.449906 4.627600 
				}
			}
		}
	}
}
MOTION
Frames: 11
Frame Time: 0.016667
-0.009810 49.661198 52.854572 179.982040 179.980530 4.580081 20.989349 -0.537101 -0.322343 -5.648581 4.004747 -3.827436 -26.710232 -1.435505 0.439560 5.588009 2.050767 -0.214706 -5.858140 -12.378829 -0.037955 -69.180092 -18.017746 -7.206465 -0.687263 -5.954307 6.037358 0.638549 0.088152 -6.991632 12.787541 -3.632739 -0.085538 78.232307 19.933029 -3.226560 1.450871 3.117699 5.034270 -2.056873 1.521897 -5.436424 2.749153 3.773995 0.109626 -2.763228 -3.816582 0.080046 -0.038021 -0.206975 -0.078555 2.410217 -5.456738 -0.303509 -2.165159 5.033085 -0.199500 -0.010808 0.164043 0.062238 
-0.019621 49.702251 52.731964 179.982040 179.980530 4.580081 21.253021 -0.537101 -0.322343 -5.648581 4.004747 -3.827436 -27.061550 -1.435506 0.429797 5.588009 2.050767 -0.214706 -5.858140 -12.378829 -0.037955 -69.125458 -18.450171 -7.225587 -0.687263 -5.954307 6.037358 0.638549 0.088152 -6.991632 12.787541 -3.632739 -0.085538 78.127808 21.166643 -2.835892 2.942873 3.110533 5.008974 -2.056873 1.521897 -5.436424 2.749153 3.773999 0.109626 -2.763228 -3.816582 0.080046 -0.038014 -0.203512 -0.087686 2.410217 -5.456738 -0.303509 -1.913805 5.047871 -0.257268 -0.021256 0.324642 0.133645 
-0.029684 49.741600 52.611034 179.982040 179.980530 4.580081 21.516693 -0.537101 -0.322343 -5.648581 4.004747 -3.827436 -27.413113 -1.435507 0.429797 5.588009 2.050767 -0.214706 -5.858140 -12.378829 -0.037955 -69.034622 -19.067606 -7.280667 -0.687263 -5.954307 6.037358 0.638549 0.088152 -6.991632 12.787541 -3.632739 -0.085538 78.010773 22.485653 -2.371862 4.445291 3.102268 4.970578 -3.107139 1.421721 -5.463521 2.749153 3.773999 0.109626 -2.763228 -3.816582 0.080046 -0.038015 -0.203512 -0.087686 2.410217 -5.456738 -0.303509 -1.649944 5.047843 -0.235619 -0.020920 0.328125 0.124522 
-0.039747 49.780956 52.490120 179.982040 179.980530 4.580081 21.780273 -0.537101 -0.312578 -5.648581 4.004747 -3.827436 -27.764673 -1.435507 0.429797 5.588009 2.050767 -0.214706 -5.858140 -12.378829 -0.037955 -68.952759 -19.673563 -7.342586 -0.687263 -5.954307 6.037358 0.638549 0.088152 -6.991632 12.787541 -3.632739 -0.085538 77.896767 23.816132 -1.902654 5.946802 3.094229 4.948845 -4.157089 1.321777 -5.478800 2.749153 3.773999 0.109626 -2.763228 -3.816582 0.080046 -0.038019 -0.206976 -0.078555 2.410217 -5.456738 -0.303509 -1.385485 5.035999 -0.203863 -0.021202 0.331573 0.115384 
-0.026438 49.713596 52.648975 179.982040 179.980530 4.580081 22.131836 -0.537101 -0.312578 -5.648581 4.004747 -3.827436 -28.028347 -1.435507 0.429797 5.588009 2.050767 -0.214706 -5.858140 -12.378829 -0.037955 -68.879745 -20.196508 -7.399814 -0.687263 -5.954307 6.037358 0.638549 0.088152 -6.991632 12.787541 -3.632739 -0.085538 77.765327 25.138386 -1.478254 7.528531 3.071286 4.912709 -4.682368 1.270574 -5.500468 2.749153 3.773995 0.109626 -2.763228 -3.816582 0.080046 -0.038019 -0.206975 -0.078555 1.969657 -5.421717 -0.311434 -1.023998 5.024260 -0.095852 -0.454253 0.219148 0.063180 
-0.013132 49.646244 52.807804 179.982040 179.980530 4.580081 22.483400 -0.537101 -0.312578 -5.648581 4.004747 -3.827436 -28.291775 -1.435508 0.420035 5.588009 2.050767 -0.214706 -5.858140 -12.378829 -0.037955 -68.814888 -20.720480 -7.457576 -0.687263 -5.954307 6.037358 0.638549 0.088152 -6.991632 12.787541 -3.632739 -0.085538 77.636162 26.469967 -1.062597 9.109034 3.058057 4.882641 -5.208337 1.229655 -5.512794 2.749153 3.773995 0.109626 -2.763228 -3.816582 0.080046 -0.038014 -0.203512 -0.087686 1.531396 -5.397789 -0.310348 -0.674192 5.006231 0.020342 -0.892037 0.103531 0.029713 
-0.015231 49.648464 52.782452 179.982040 179.980530 4.580081 22.747068 -0.537101 -0.312578 -5.648581 4.004747 -3.827436 -28.643335 -1.435508 0.420035 5.588009 2.050767 -0.214706 -5.858140 -12.378829 -0.037955 -68.751221 -21.151211 -7.510186 -0.687263 -5.954307 6.037358 0.638549 0.088152 -6.991632 12.787541 -3.632739 -0.085538 77.509285 27.703888 -0.685755 10.690173 3.041889 4.839397 -5.644917 1.177726 -5.521128 2.749153 3.773999 0.109626 -2.763228 -3.816582 0.080046 -0.038015 -0.203512 -0.087686 1.453914 -5.418383 -0.323608 -0.418954 5.021977 -0.056005 -1.036009 0.235418 0.070775 
-0.017329 49.650681 52.757095 179.982040 179.980530 4.580081 23.010744 -0.537101 -0.312578 -5.648581 4.004747 -3.827436 -28.994656 -1.435510 0.410272 5.588009 2.050767 -0.214706 -5.858140 -12.378829 -0.037955 -68.685547 -21.585041 -7.557565 -0.687263 -5.954307 6.037358 0.638549 0.088152 -6.991632 12.787541 -3.632739 -0.085538 77.386459 28.935440 -0.315903 12.270407 3.028117 4.811764 -6.082416 1.135411 -5.529803 2.749153 3.773999 0.109626 -2.763228 -3.816582 0.080046 -0.038020 -0.206975 -0.078555 1.364656 -5.440672 -0.337441 -0.166282 5.045154 -0.104840 -1.165958 0.305584 0.119462 
-0.019424 49.653709 52.727104 179.982040 179.980530 4.580081 23.274506 -0.537101 -0.322343 -5.648581 4.004747 -3.827436 -29.346214 -1.435510 0.410272 5.588009 2.050767 -0.214706 -5.858140 -12.378829 -0.037955 -68.590027 -22.200886 -7.537314 -0.687263 -5.954307 6.037358 0.638549 0.088152 -6.991632 12.787541 -3.632739 -0.085538 77.336838 30.268471 0.206151 13.762272 3.015957 4.782318 -6.607399 1.084546 -5.540025 2.749153 3.773999 0.109626 -2.763228 -3.816582 0.080046 -0.038014 -0.203512 -0.087686 1.179850 -5.402994 -0.339087 0.028975 4.960063 -0.087304 -1.263966 0.322284 0.210213 
-0.021519 49.656734 52.697117 179.982040 179.980530 4.580081 23.538177 -0.537101 -0.322343 -5.648581 4.004747 -3.827436 -29.697533 -1.435512 0.400510 5.588009 2.050767 -0.214706 -5.858140 -12.378829 -0.037955 -68.503532 -22.808577 -7.510943 -0.687263 -5.954307 6.037358 0.638549 0.088152 -6.991632 12.787541 -3.632739 -0.085538 77.302887 31.608545 0.732990 15.255038 2.993270 4.749662 -7.133304 1.043237 -5.550967 2.749153 3.773999 0.109626 -2.763228 -3.816582 0.080046 -0.038019 -0.206976 -0.078555 0.995766 -5.360195 -0.330555 0.194974 4.858554 -0.081908 -1.330968 0.335477 0.310053 
-0.023901 49.657822 52.672302 179.982040 179.980530 4.580081 23.889740 -0.537101 -0.322343 -5.648581 4.004747 -3.827436 -29.961205 -1.435512 0.400510 5.588009 2.050767 -0.214706 -5.858140 -12.378829 -0.037955 -68.427132 -23.334545 -7.566052 -0.687263 -5.954307 6.037358 0.638549 0.088152 -6.991632 12.787541 -3.632739 -0.085538 77.251389 32.937061 1.208645 16.757126 2.973320 4.723416 -7.569824 0.991060 -5.557543 2.749153 3.773999 0.109626 -2.763228 -3.816582 0.080046 -0.038020 -0.206975 -0.078555 0.916059 -5.364112 -0.332970 0.526733 4.912711 -0.055946 -1.260146 0.301711 0.202157 
